<mxfile host="app.diagrams.net" modified="2024-01-10T02:07:05.340Z" agent="Mozilla/5.0 (Windows NT 10.0; Win64; x64) AppleWebKit/537.36 (KHTML, like Gecko) Chrome/120.0.0.0 Safari/537.36" version="22.1.18" etag="N6osFd_xJe7XbuMSG2su" type="github">
  <diagram name="第 1 页" id="bWxPfrUYrM2qT87_M3tC">
    <mxGraphModel>
      <root>
        <mxCell id="0" />
        <mxCell id="1" parent="0" />
      </root>
    </mxGraphModel>
  </diagram>
</mxfile>
